<svg width="256" height="256" viewBox="0 0 256 256" fill="none" xmlns="http://www.w3.org/2000/svg">
  <defs>
    <linearGradient id="bg" x1="52" y1="28" x2="214" y2="220" gradientUnits="userSpaceOnUse">
      <stop stop-color="#7D4BCE"/>
      <stop offset="0.56" stop-color="#5B3892"/>
      <stop offset="1" stop-color="#321B52"/>
    </linearGradient>
    <linearGradient id="cardA" x1="72" y1="56" x2="184" y2="188" gradientUnits="userSpaceOnUse">
      <stop stop-color="#B78CFF"/>
      <stop offset="1" stop-color="#8B5EF0"/>
    </linearGradient>
    <linearGradient id="cardB" x1="62" y1="92" x2="196" y2="210" gradientUnits="userSpaceOnUse">
      <stop stop-color="#EFE7FF"/>
      <stop offset="1" stop-color="#C9B5FF"/>
    </linearGradient>
  </defs>
  <rect x="18" y="18" width="220" height="220" rx="56" fill="#FFFFFF"/>
  <rect x="18" y="18" width="220" height="220" rx="56" fill="url(#bg)" opacity="0.10"/>
  <rect x="58" y="62" width="118" height="78" rx="20" fill="url(#cardA)" opacity="0.96"/>
  <rect x="78" y="96" width="120" height="78" rx="20" fill="url(#cardB)" opacity="0.98"/>
  <path d="M78 118C78 110.82 83.82 105 91 105H166C173.18 105 179 110.82 179 118V140C179 147.18 173.18 153 166 153H126L109 169L112 153H91C83.82 153 78 147.18 78 140V118Z" fill="#FFFFFF" opacity="0.18"/>
  <path d="M94 102H157" stroke="#FFFFFF" stroke-width="8" stroke-linecap="round"/>
  <path d="M94 124H145" stroke="#FFFFFF" stroke-width="8" stroke-linecap="round"/>
  <path d="M94 146H138" stroke="#FFFFFF" stroke-width="8" stroke-linecap="round"/>
  <path d="M154 62L170 48L175 62H154Z" fill="#D7C0FF"/>
  <path d="M111 168L128 152L145 168L128 184L111 168Z" fill="#7C45D7" opacity="0.92"/>
</svg>
